# xmcd
#
# Track frame offsets:
#	150
#	16560
#	31337
#	48402
#	66062
#	79865
#	96690
#	110867
#	127220
#	144247
#	159695
#	177062
#	193767
#	209895
#
# Disc length: 3044 seconds
#
# Revision: 0
# Processed by: cddbd v1.5.2PL0 Copyright (c) Steve Scherf et al.
# Submitted via: EasyCDDAExtractor 16.0.1.1
#
DISCID=ce0be20e
DTITLE=Kathy Cramer - The Missing Piece
DYEAR=1998
DGENRE=Country
TTITLE0=Up To No Good
TTITLE1=This Ain't No Fun Anymore
TTITLE2=Help's On The Way
TTITLE3=Heart To Heart Resuscitation
TTITLE4=Don't Get Me Started
TTITLE5=Mama Please Remember Me
TTITLE6=Bouncin' Back
TTITLE7=That Train
TTITLE8=Mexican Moon
TTITLE9=Let Me Teach You The Ropes
TTITLE10=The Missing Piece
TTITLE11=The Grand Canyon
TTITLE12=You Don't Know Jack
TTITLE13=Trembling From Your Touch
EXTD=
EXTT0=
EXTT1=
EXTT2=
EXTT3=
EXTT4=
EXTT5=
EXTT6=
EXTT7=
EXTT8=
EXTT9=
EXTT10=
EXTT11=
EXTT12=
EXTT13=
PLAYORDER=
